<svg width="60" height="60" viewBox="0 0 60 60" fill="none" xmlns="http://www.w3.org/2000/svg">
<path d="M36.2997 17.7932C36.2997 21.2809 33.4773 24.105 29.9996 24.105C26.5219 24.105 23.6995 21.2809 23.6995 17.7932C23.6995 14.3055 26.5219 11.4814 29.9996 11.4814C33.4773 11.4814 36.2997 14.3055 36.2997 17.7932Z" stroke="#0FBEC9" stroke-width="2.4"/>
<path d="M20.5496 20.2971C20.5496 23.0933 18.2869 25.3569 15.4996 25.3569C12.7123 25.3569 10.4495 23.0933 10.4495 20.2971C10.4495 17.5008 12.7123 15.2372 15.4996 15.2372C18.2869 15.2372 20.5496 17.5008 20.5496 20.2971Z" stroke="#0FBEC9" stroke-width="2.4"/>
<path d="M49.5496 20.2971C49.5496 23.0933 47.2869 25.3569 44.4996 25.3569C41.7123 25.3569 39.4495 23.0933 39.4495 20.2971C39.4495 17.5008 41.7123 15.2372 44.4996 15.2372C47.2869 15.2372 49.5496 17.5008 49.5496 20.2971Z" stroke="#0FBEC9" stroke-width="2.4"/>
<path d="M16.8255 40.9319C16.8255 33.6555 22.7242 27.7568 30.0006 27.7568C37.2771 27.7568 43.1758 33.6555 43.1758 40.9319V47.7182C43.1758 48.16 42.8176 48.5182 42.3758 48.5182H17.6255C17.1837 48.5182 16.8255 48.16 16.8255 47.7182V40.9319Z" stroke="#0FBEC9" stroke-width="2.4"/>
<mask id="path-5-inside-1_1_1245" fill="white">
<path fill-rule="evenodd" clip-rule="evenodd" d="M40.3847 49.7187H56.0085C57.1085 49.7187 58.0003 48.8269 58.0003 47.7269V40.3093C58.0003 33.4057 52.4038 27.8092 45.5001 27.8092C42.6081 27.8092 39.9455 28.7913 37.8276 30.4402C40.6271 33.0631 42.3763 36.7935 42.3763 40.9324V47.7187C42.3763 48.8205 41.4854 49.7142 40.3847 49.7187Z"/>
</mask>
<path d="M40.3847 49.7187L40.3749 47.3187L40.3847 52.1187V49.7187ZM37.8276 30.4402L36.3533 28.5464L34.1374 30.2715L36.1867 32.1916L37.8276 30.4402ZM56.0085 47.3187H40.3847V52.1187H56.0085V47.3187ZM55.6003 47.7269C55.6003 47.5014 55.783 47.3187 56.0085 47.3187V52.1187C58.434 52.1187 60.4003 50.1524 60.4003 47.7269H55.6003ZM55.6003 40.3093V47.7269H60.4003V40.3093H55.6003ZM45.5001 30.2092C51.0783 30.2092 55.6003 34.7312 55.6003 40.3093H60.4003C60.4003 32.0802 53.7292 25.4092 45.5001 25.4092V30.2092ZM39.302 32.3339C41.0134 31.0015 43.1609 30.2092 45.5001 30.2092V25.4092C42.0554 25.4092 38.8777 26.5811 36.3533 28.5464L39.302 32.3339ZM36.1867 32.1916C38.5222 34.3797 39.9763 37.4843 39.9763 40.9324H44.7763C44.7763 36.1026 42.7321 31.7465 39.4686 28.6888L36.1867 32.1916ZM39.9763 40.9324V47.7187H44.7763V40.9324H39.9763ZM39.9763 47.7187C39.9763 47.4983 40.1545 47.3196 40.3749 47.3187L40.3945 52.1186C42.8163 52.1087 44.7763 50.1426 44.7763 47.7187H39.9763Z" fill="#0FBEC9" mask="url(#path-5-inside-1_1_1245)"/>
<mask id="path-7-inside-2_1_1245" fill="white">
<path fill-rule="evenodd" clip-rule="evenodd" d="M22.1735 30.4412C19.3744 33.0641 17.6254 36.7943 17.6254 40.9329V47.7192C17.6254 48.8086 18.4964 49.6945 19.58 49.7187H3.99128C2.89126 49.7187 1.99951 48.8269 1.99951 47.7269V40.3093C1.99951 33.4057 7.59601 27.8092 14.4996 27.8092C17.3922 27.8092 20.0554 28.7917 22.1735 30.4412Z"/>
</mask>
<path d="M22.1735 30.4412L23.8145 32.1925L25.8633 30.2728L23.6481 28.5477L22.1735 30.4412ZM19.58 49.7187V52.1187L19.6335 47.3193L19.58 49.7187ZM20.0254 40.9329C20.0254 37.4851 21.4794 34.3806 23.8145 32.1925L20.5325 28.6899C17.2694 31.7476 15.2254 36.1034 15.2254 40.9329H20.0254ZM20.0254 47.7192V40.9329H15.2254V47.7192H20.0254ZM19.6335 47.3193C19.8513 47.3241 20.0254 47.501 20.0254 47.7192H15.2254C15.2254 50.1161 17.1416 52.0649 19.5266 52.1181L19.6335 47.3193ZM19.58 47.3187H3.99128V52.1187H19.58V47.3187ZM3.99128 47.3187C4.21674 47.3187 4.39951 47.5014 4.39951 47.7269H-0.400488C-0.400488 50.1524 1.56577 52.1187 3.99128 52.1187V47.3187ZM4.39951 47.7269V40.3093H-0.400488V47.7269H4.39951ZM4.39951 40.3093C4.39951 34.7312 8.92149 30.2092 14.4996 30.2092V25.4092C6.27053 25.4092 -0.400488 32.0802 -0.400488 40.3093H4.39951ZM14.4996 30.2092C16.8394 30.2092 18.9873 31.0019 20.6989 32.3348L23.6481 28.5477C21.1235 26.5816 17.9451 25.4092 14.4996 25.4092V30.2092Z" fill="#0FBEC9" mask="url(#path-7-inside-2_1_1245)"/>
</svg>
